# xmcd CD database file
#
# Track frame offsets:
#	180
#	10045
#	19815
#	30065
#	41650
#	51680
#	69407
#	80127
#	88880
#	99327
#	108727
#
# Disc length: 1584 seconds
#
# Revision: 1
# Processed by: cddbd v1.5.2PL0 Copyright (c) Steve Scherf et al.
# Submitted via: CDex 1.70beta2
#
DISCID=89062e0b
DTITLE=Al Dean - Al Dean Sings
DYEAR=1996
DGENRE=Country
TTITLE0=Verge of the Blues
TTITLE1=Is Anybody Going to San Antone
TTITLE2=Bubbles in My Beer
TTITLE3=Cattle Call
TTITLE4=Walk a Little Slower Warden
TTITLE5=That Silver Haired Daddy of Mine
TTITLE6=A Girl at the Bar
TTITLE7=Ruff Neck Paycheck
TTITLE8=It Looks Up
TTITLE9=Casting My Lasso
TTITLE10=Don't Let the Stars Get in Your Eyes
EXTD=YEAR: 1996
EXTT0=
EXTT1=
EXTT2=
EXTT3=
EXTT4=
EXTT5=
EXTT6=
EXTT7=
EXTT8=
EXTT9=
EXTT10=
PLAYORDER=
